<svg width="28" height="16" viewBox="0 0 28 16" fill="none" xmlns="http://www.w3.org/2000/svg">
<path d="M0 15.7832C0.187476 13.5543 0.869682 11.5025 2.04662 9.62773C3.22355 7.75296 4.79106 6.26357 6.74915 5.15954L4.43694 1.16005C4.31196 0.972569 4.28071 0.774678 4.3432 0.566371C4.40569 0.358064 4.54109 0.201834 4.7494 0.0976801C4.91605 -0.00647354 5.10352 -0.0273046 5.31183 0.0351877C5.52014 0.0976801 5.68678 0.222664 5.81177 0.41014L8.12398 4.40964C9.91542 3.65973 11.7902 3.28478 13.7483 3.28478C15.7064 3.28478 17.5811 3.65973 19.3726 4.40964L21.6848 0.41014C21.8098 0.222664 21.9764 0.0976801 22.1847 0.0351877C22.393 -0.0273046 22.5805 -0.00647354 22.7471 0.0976801C22.9554 0.201834 23.0908 0.358064 23.1533 0.566371C23.2158 0.774678 23.1846 0.972569 23.0596 1.16005L20.7474 5.15954C22.7055 6.26357 24.273 7.75296 25.4499 9.62773C26.6269 11.5025 27.3091 13.5543 27.4965 15.7832H0ZM7.49905 12.3461C7.9365 12.3461 8.30624 12.1951 8.60829 11.8931C8.91034 11.591 9.06136 11.2213 9.06136 10.7838C9.06136 10.3464 8.91034 9.97664 8.60829 9.6746C8.30624 9.37255 7.9365 9.22153 7.49905 9.22153C7.06161 9.22153 6.69186 9.37255 6.38982 9.6746C6.08777 9.97664 5.93675 10.3464 5.93675 10.7838C5.93675 11.2213 6.08777 11.591 6.38982 11.8931C6.69186 12.1951 7.06161 12.3461 7.49905 12.3461ZM19.9975 12.3461C20.4349 12.3461 20.8047 12.1951 21.1067 11.8931C21.4088 11.591 21.5598 11.2213 21.5598 10.7838C21.5598 10.3464 21.4088 9.97664 21.1067 9.6746C20.8047 9.37255 20.4349 9.22153 19.9975 9.22153C19.56 9.22153 19.1903 9.37255 18.8882 9.6746C18.5862 9.97664 18.4352 10.3464 18.4352 10.7838C18.4352 11.2213 18.5862 11.591 18.8882 11.8931C19.1903 12.1951 19.56 12.3461 19.9975 12.3461Z" fill="#2ECC76"/>
</svg>
