<svg width="16" height="15" viewBox="0 0 16 15" fill="none" xmlns="http://www.w3.org/2000/svg">
<path d="M3.04492 0.000390751V14.4004H0.000391326V0.000390751H3.04492ZM8.48887 8.15664V14.4004H5.49356V3.60039H8.34824V5.50586H8.4748C8.71387 4.87773 9.11465 4.38086 9.67715 4.01523C10.2396 3.64492 10.9217 3.45977 11.7232 3.45977C12.4732 3.45977 13.1271 3.62383 13.685 3.95195C14.2428 4.28008 14.6764 4.74883 14.9857 5.3582C15.2951 5.96289 15.4498 6.68477 15.4498 7.52383V14.4004H12.4545V8.0582C12.4592 7.39727 12.2904 6.88164 11.9482 6.51133C11.6061 6.13633 11.135 5.94883 10.535 5.94883C10.1318 5.94883 9.77559 6.03555 9.46621 6.20898C9.16152 6.38242 8.92246 6.63555 8.74902 6.96836C8.58027 7.29648 8.49355 7.69258 8.48887 8.15664Z" fill="#A0A0A0"/>
<a href="http://localhost:11063/code.html">
<rect fill="black" fill-opacity="0" x="0.133595" y="2.01875" width="17.8611" height="23.9625"/>
</a>
</svg>
