<svg width="19" height="28" viewBox="0 0 19 28" fill="none" xmlns="http://www.w3.org/2000/svg">
<path d="M2.49968 27.4961C1.81227 27.4961 1.2238 27.2513 0.734282 26.7618C0.244761 26.2723 0 25.6838 0 24.9964V2.49924C0 1.81183 0.244761 1.22336 0.734282 0.733841C1.2238 0.24432 1.81227 -0.000440598 2.49968 -0.000440598H14.9981C15.6855 -0.000440598 16.274 0.24432 16.7635 0.733841C17.253 1.22336 17.4978 1.81183 17.4978 2.49924V6.37376C17.8727 6.51957 18.1748 6.74871 18.4039 7.06117C18.6331 7.37363 18.7476 7.72775 18.7476 8.12354V10.6232C18.7476 11.019 18.6331 11.3731 18.4039 11.6856C18.1748 11.998 17.8727 12.2272 17.4978 12.373V24.9964C17.4978 25.6838 17.253 26.2723 16.7635 26.7618C16.274 27.2513 15.6855 27.4961 14.9981 27.4961H2.49968ZM2.49968 24.9964H14.9981V2.49924H2.49968V24.9964ZM3.74953 13.7478H13.7483V11.2481H3.74953V13.7478Z" fill="white"/>
</svg>
